<svg xmlns="http://www.w3.org/2000/svg" viewBox="0 0 24 24" fill="none" stroke-width="2" stroke-linecap="round" stroke-linejoin="round">
  <defs>
    <linearGradient id="house-gradient" x1="2" y1="2" x2="22" y2="22" gradientUnits="userSpaceOnUse">
      <stop offset="0" stop-color="#c13d34" />
      <stop offset="0.25" stop-color="#cd725c" />
      <stop offset="0.5" stop-color="#5a9763" />
      <stop offset="0.75" stop-color="#007277" />
      <stop offset="1" stop-color="#224a8d" />
    </linearGradient>
  </defs>
  <g stroke="url(#house-gradient)">
    <path d="M15 21v-8a1 1 0 0 0-1-1h-4a1 1 0 0 0-1 1v8" />
    <path d="M3 10a2 2 0 0 1 .709-1.528l7-5.999a2 2 0 0 1 2.582 0l7 5.999A2 2 0 0 1 21 10v9a2 2 0 0 1-2 2H5a2 2 0 0 1-2-2z" />
  </g>
</svg>
